<svg width="3107" height="1727" viewBox="0 0 3107 1727" fill="none" xmlns="http://www.w3.org/2000/svg">
<g opacity="0.5">
<path fill-rule="evenodd" clip-rule="evenodd" d="M1177.43 92.2236C1177.43 41.2899 1218.72 0 1269.65 0H2301.8C2352.73 0 2394.02 41.2899 2394.02 92.2236C2394.02 143.157 2352.73 184.447 2301.8 184.447H2252.93L2249.53 184.447C2198.6 184.447 2157.31 225.737 2157.31 276.671C2157.31 315.745 2181.61 349.143 2215.92 362.578H2460.98C2511.91 362.578 2553.2 403.868 2553.2 454.801C2553.2 505.735 2511.91 547.025 2460.98 547.025L1922.43 547.025C1871.5 547.025 1830.21 588.315 1830.21 639.249C1830.21 690.182 1871.5 731.472 1922.43 731.472H2856.41C2907.34 731.472 2948.63 772.762 2948.63 823.696C2948.63 874.63 2907.34 915.919 2856.41 915.919H2156.8C2105.87 915.919 2064.58 957.209 2064.58 1008.14C2064.58 1059.08 2105.87 1100.37 2156.8 1100.37H2199.47C2250.4 1100.37 2291.69 1141.66 2291.69 1192.59C2291.69 1243.52 2250.4 1284.81 2199.47 1284.81L2125.4 1284.81L2125.25 1284.81C2074.38 1284.9 2033.17 1326.15 2033.17 1377.04C2033.17 1427.92 2074.38 1469.18 2125.25 1469.26C2125.3 1469.26 2125.35 1469.26 2125.4 1469.26L2675.75 1469.26C2726.68 1469.26 2767.97 1510.55 2767.97 1561.48C2767.97 1612.42 2726.68 1653.71 2675.75 1653.71H545.762C494.828 1653.71 453.538 1612.42 453.538 1561.48C453.538 1510.55 494.828 1469.26 545.762 1469.26L866.342 1469.26L866.493 1469.26C917.357 1469.18 958.565 1427.92 958.565 1377.04C958.565 1326.15 917.357 1284.9 866.493 1284.81L866.342 1284.81L142.757 1284.81C91.8236 1284.81 50.5336 1243.52 50.5336 1192.59C50.5336 1141.66 91.8235 1100.37 142.757 1100.37H897.747C948.68 1100.37 989.97 1059.08 989.97 1008.14C989.97 957.209 948.68 915.919 897.747 915.919H255.194C204.261 915.919 162.97 874.63 162.97 823.696C162.97 772.762 204.26 731.472 255.194 731.472H348.019C398.952 731.472 440.242 690.182 440.242 639.249C440.242 588.315 398.952 547.025 348.018 547.025L92.2237 547.025C41.29 547.025 0 505.735 0 454.801C0 403.868 41.2899 362.578 92.2236 362.578H1359.31C1393.62 349.143 1417.92 315.745 1417.92 276.671C1417.92 225.753 1376.66 184.473 1325.74 184.447H1269.65C1218.72 184.447 1177.43 143.157 1177.43 92.2236ZM573.555 0C522.621 0 481.332 41.2899 481.332 92.2236C481.332 143.157 522.621 184.447 573.555 184.447H951.293C1002.23 184.447 1043.52 143.157 1043.52 92.2236C1043.52 41.2899 1002.23 0 951.293 0H573.555ZM2376.34 1192.59C2376.34 1141.66 2417.63 1100.37 2468.56 1100.37H2675.75C2726.68 1100.37 2767.97 1141.66 2767.97 1192.59C2767.97 1243.52 2726.68 1284.81 2675.75 1284.81H2468.56C2417.63 1284.81 2376.34 1243.52 2376.34 1192.59Z" fill="url(#paint0_linear)" fill-opacity="0.2"/>
</g>
<defs>
<linearGradient id="paint0_linear" x1="1052.36" y1="-0.000548134" x2="2258.22" y2="1945.54" gradientUnits="userSpaceOnUse">
<stop stop-color="#7366FF"/>
<stop offset="1" stop-color="#FF5B94"/>
</linearGradient>
</defs>
</svg>
