<svg width="2880" height="1694" viewBox="0 0 2880 1694" fill="none" xmlns="http://www.w3.org/2000/svg">
<rect width="2880" height="1694" fill="url(#paint0_linear)"/>
<path d="M387.444 1006.45C632.825 727.135 1153.72 1242.8 1633.72 587.477C2113.72 -67.8424 2880 168.502 2880 168.502V1694H0C0 1694 142.063 1285.77 387.444 1006.45Z" fill="url(#paint1_linear)"/>
<path d="M922.305 1200.83C1115.03 1000.47 1524.15 1370.35 1901.15 900.298C2278.15 430.241 2880 599.769 2880 599.769V1694H618C618 1694 729.578 1401.18 922.305 1200.83Z" fill="url(#paint2_linear)"/>
<path d="M946.538 1428.98C1136.88 1321.32 1540.94 1520.08 1913.27 1267.49C2285.6 1014.9 2880 1106 2880 1106V1694H646C646 1694 756.197 1536.65 946.538 1428.98Z" fill="url(#paint3_linear)"/>
<defs>
<linearGradient id="paint0_linear" x1="194" y1="722.5" x2="1922.59" y2="-944.363" gradientUnits="userSpaceOnUse">
<stop stop-color="#100E17"/>
<stop offset="0.928009" stop-color="#240E46"/>
</linearGradient>
<linearGradient id="paint1_linear" x1="197.5" y1="1218" x2="2519.45" y2="-1604.35" gradientUnits="userSpaceOnUse">
<stop stop-color="#100E17"/>
<stop offset="1" stop-color="#460B74"/>
</linearGradient>
<linearGradient id="paint2_linear" x1="452.5" y1="1607.5" x2="3510.46" y2="476.433" gradientUnits="userSpaceOnUse">
<stop stop-color="#100E17"/>
<stop offset="1" stop-color="#401A5F"/>
</linearGradient>
<linearGradient id="paint3_linear" x1="193.964" y1="1315.1" x2="727.193" y2="-694.369" gradientUnits="userSpaceOnUse">
<stop stop-color="#100E17"/>
<stop offset="1" stop-color="#4E1587"/>
</linearGradient>
</defs>
</svg>
