<svg width="500" height="450" viewBox="0 0 500 450" fill="none" xmlns="http://www.w3.org/2000/svg">
<path d="M125 30C125 13.4315 138.431 0 155 0H345C361.569 0 375 13.4315 375 30V450H125V30Z" fill="#FF6F69" fill-opacity="0.9"/>
<path d="M250 168.785C250 152.217 263.431 138.785 280 138.785H470C486.569 138.785 500 152.216 500 168.785V420C500 436.569 486.569 450 470 450H250V168.785Z" fill="#FFCF1B" fill-opacity="0.9"/>
<path d="M0 302.448C0 285.879 13.4315 272.448 30 272.448H218.297C234.866 272.448 248.297 285.879 248.297 302.448V450H30C13.4314 450 0 436.568 0 420V302.448Z" fill="#7366FF" fill-opacity="0.9"/>
</svg>
