<svg width="122" height="122" viewBox="0 0 122 122" fill="none" xmlns="http://www.w3.org/2000/svg">
<path fill-rule="evenodd" clip-rule="evenodd" d="M122 30.3747H0V91.1242H0.00311015L0 91.1257L61 121.502L122 91.1257L121.997 91.1242H122V30.3747Z" fill="#FF4757"/>
<path d="M0 30.3763L61 2.18984e-05L122 30.3763L61 60.7526L0 30.3763Z" fill="#FFCC5C"/>
<path fill-rule="evenodd" clip-rule="evenodd" d="M93.4011 44.1689H28V76.7351H28.0016L28 76.7359L60.7005 93.0199L93.4011 76.7359L93.3994 76.7351H93.4011V44.1689Z" fill="#5F27CD"/>
<path d="M28 44.1696L60.7005 27.8857L93.4011 44.1696L60.7005 60.4536L28 44.1696Z" fill="#056EBA"/>
<path d="M60.5 60.2531L0 30.3755V91.1265L61 121.502L60.5 60.2531Z" fill="black" fill-opacity="0.2"/>
<path d="M61.5 60.751L122 30.8735V91.6245L61 122L61.5 60.751Z" fill="white" fill-opacity="0.05"/>
</svg>
