<svg width="1216" height="348" viewBox="0 0 1216 348" fill="none" xmlns="http://www.w3.org/2000/svg">
<path fill-rule="evenodd" clip-rule="evenodd" d="M83.8384 26.2626V114.816C82.7408 122.435 76.1854 128.289 68.2627 128.289C59.5712 128.289 52.5254 121.244 52.5254 112.552V300L83.8384 300H135.125H136.364H167.676H169.939H220.707H221.211H247.475C247.518 300 247.561 300 247.604 300C276.554 299.93 300 276.44 300 247.475V140.092C300 125.588 288.242 113.83 273.737 113.83C259.233 113.83 247.475 125.588 247.475 140.092V159.795C246.306 166.043 240.823 170.771 234.236 170.771C227.988 170.771 222.733 166.517 221.211 160.747V56.5549C221.211 41.7715 209.227 29.7872 194.443 29.7872C179.66 29.7872 167.676 41.7715 167.676 56.5549V81.6016C164.683 86.8677 159.022 90.4196 152.532 90.4196C145.201 90.4196 138.929 85.8884 136.364 79.474V26.2626C136.364 11.7582 124.605 0 110.101 0C95.5966 0 83.8384 11.7582 83.8384 26.2626ZM27.1593 61.2258C12.6906 61.2258 0.961426 49.4966 0.961426 35.0279V26.198C0.961426 11.7294 12.6906 0.000183105 27.1593 0.000183105C41.628 0.000183105 53.3571 11.7294 53.3571 26.1981V35.0279C53.3571 49.4966 41.628 61.2258 27.1593 61.2258ZM52.5253 300C23.5164 300 0 276.484 0 247.475V101.795C0 87.2901 11.7582 75.5319 26.2626 75.5319C40.7671 75.5319 52.5253 87.2901 52.5253 101.795V300ZM273.378 97.8984C258.874 97.8984 247.116 86.1402 247.116 71.6358V42.2462C247.116 27.7417 258.874 15.9835 273.378 15.9835C287.883 15.9835 299.641 27.7417 299.641 42.2462V71.6358C299.641 86.1402 287.883 97.8984 273.378 97.8984Z" fill="#7366FF"/>
<path fill-rule="evenodd" clip-rule="evenodd" d="M98.8936 273.78V133.511C98.8936 122.155 108.1 112.949 119.456 112.949C130.812 112.949 140.018 122.155 140.018 133.511V148.906C141.928 154.148 146.956 157.892 152.859 157.892C158.552 157.892 163.432 154.41 165.485 149.459C165.696 148.374 165.992 147.319 166.366 146.302C166.468 145.626 166.522 144.934 166.522 144.23V145.89C169.529 138.218 176.999 132.785 185.737 132.785C197.132 132.785 206.369 142.022 206.369 153.416V188.047H206.417V197.315C206.417 203.154 211.15 207.887 216.989 207.887C222.195 207.887 226.523 204.123 227.399 199.168C227.875 188.205 236.913 179.464 247.992 179.464C259.376 179.464 268.605 188.693 268.605 200.077V232.646C268.605 255.381 250.202 273.818 227.48 273.872V273.872H227.379H206.369V273.78H166.522V273.872H139.197V273.78H98.8936ZM74.3652 273.872C51.5967 273.872 33.1392 255.415 33.1392 232.646V179.157C33.1392 167.773 42.368 158.544 53.7523 158.544C65.1082 158.544 74.3194 167.727 74.3652 179.072V170.716C74.3652 177.489 79.8559 182.98 86.6289 182.98C93.402 182.98 98.8926 177.489 98.8926 170.716L98.8926 273.872H74.3654H74.3652Z" fill="#FF5B94"/>
<path fill-rule="evenodd" clip-rule="evenodd" d="M120.77 248.63V187.914C120.77 182.998 124.755 179.013 129.671 179.013C134.586 179.013 138.571 182.998 138.571 187.914V194.577C139.398 196.846 141.574 198.467 144.13 198.467C146.594 198.467 148.706 196.96 149.595 194.817C149.686 194.347 149.814 193.89 149.976 193.45C150.021 193.157 150.044 192.858 150.044 192.553V193.272C151.345 189.951 154.579 187.599 158.361 187.599C163.293 187.599 167.292 191.598 167.292 196.53V211.52H167.313V215.532C167.313 218.059 169.362 220.108 171.89 220.108C174.14 220.108 176.011 218.483 176.394 216.343C176.595 211.593 180.509 207.805 185.308 207.805C190.236 207.805 194.231 211.8 194.231 216.727V230.825C194.231 240.666 186.265 248.646 176.43 248.67M176.386 248.67H167.292V248.63H150.044V248.67H138.216V248.63H120.77M110.153 248.67C100.297 248.67 92.3076 240.681 92.3076 230.825V207.672C92.3076 202.744 96.3024 198.749 101.23 198.749C106.158 198.749 110.153 202.744 110.153 207.672V248.67ZM110.153 248.67V204.018C110.153 206.95 112.529 209.326 115.461 209.326C118.393 209.326 120.77 206.95 120.77 204.018L120.77 248.67H110.153Z" fill="#FED65D"/>
<path d="M528.719 202.328C528.719 226.703 523.516 245.734 513.109 259.422C502.703 273.016 488.172 279.812 469.516 279.812C453.016 279.812 439.844 273.484 430 260.828L428.172 277H391.609V61H432.25V138.484C441.625 127.516 453.953 122.031 469.234 122.031C487.797 122.031 502.328 128.875 512.828 142.562C523.422 156.156 528.719 175.328 528.719 200.078V202.328ZM488.078 199.375C488.078 184 485.641 172.797 480.766 165.766C475.891 158.641 468.625 155.078 458.969 155.078C446.031 155.078 437.125 160.375 432.25 170.969V231.016C437.219 241.703 446.219 247.047 459.25 247.047C472.375 247.047 481 240.578 485.125 227.641C487.094 221.453 488.078 212.031 488.078 199.375ZM596.781 277H556V61H596.781V277ZM718.562 277C716.688 273.344 715.328 268.797 714.484 263.359C704.641 274.328 691.844 279.812 676.094 279.812C661.188 279.812 648.812 275.5 638.969 266.875C629.219 258.25 624.344 247.375 624.344 234.25C624.344 218.125 630.297 205.75 642.203 197.125C654.203 188.5 671.5 184.141 694.094 184.047H712.797V175.328C712.797 168.297 710.969 162.672 707.312 158.453C703.75 154.234 698.078 152.125 690.297 152.125C683.453 152.125 678.062 153.766 674.125 157.047C670.281 160.328 668.359 164.828 668.359 170.547H627.719C627.719 161.734 630.438 153.578 635.875 146.078C641.312 138.578 649 132.719 658.938 128.5C668.875 124.187 680.031 122.031 692.406 122.031C711.156 122.031 726.016 126.766 736.984 136.234C748.047 145.609 753.578 158.828 753.578 175.891V241.844C753.672 256.281 755.688 267.203 759.625 274.609V277H718.562ZM684.953 248.734C690.953 248.734 696.484 247.422 701.547 244.797C706.609 242.078 710.359 238.469 712.797 233.969V207.812H697.609C677.266 207.812 666.438 214.844 665.125 228.906L664.984 231.297C664.984 236.359 666.766 240.531 670.328 243.812C673.891 247.094 678.766 248.734 684.953 248.734ZM831.484 244.234H905.875V277H779.594V252.25L851.172 157.75H781.703V124.844H903.625V148.891L831.484 244.234ZM978.016 244.234H1052.41V277H926.125V252.25L997.703 157.75H928.234V124.844H1050.16V148.891L978.016 244.234ZM1145.64 279.812C1123.33 279.812 1105.14 272.969 1091.08 259.281C1077.11 245.594 1070.12 227.359 1070.12 204.578V200.641C1070.12 185.359 1073.08 171.719 1078.98 159.719C1084.89 147.625 1093.23 138.344 1104.02 131.875C1114.89 125.312 1127.27 122.031 1141.14 122.031C1161.95 122.031 1178.31 128.594 1190.22 141.719C1202.22 154.844 1208.22 173.453 1208.22 197.547V214.141H1111.33C1112.64 224.078 1116.58 232.047 1123.14 238.047C1129.8 244.047 1138.19 247.047 1148.31 247.047C1163.97 247.047 1176.2 241.375 1185.02 230.031L1204.98 252.391C1198.89 261.016 1190.64 267.766 1180.23 272.641C1169.83 277.422 1158.3 279.812 1145.64 279.812ZM1141 154.938C1132.94 154.938 1126.38 157.656 1121.31 163.094C1116.34 168.531 1113.16 176.312 1111.75 186.438H1168.28V183.203C1168.09 174.203 1165.66 167.266 1160.97 162.391C1156.28 157.422 1149.62 154.938 1141 154.938Z" fill="url(#paint0_linear)"/>
<defs>
<linearGradient id="paint0_linear" x1="747" y1="10" x2="995" y2="348" gradientUnits="userSpaceOnUse">
<stop stop-color="#7366FF"/>
<stop offset="1" stop-color="#FF5B94"/>
</linearGradient>
</defs>
</svg>
